<svg xmlns="http://www.w3.org/2000/svg" viewBox="0 0 1440 320"><path fill="#a2d9ff" fill-opacity="1" d="M0,224L30,208C60,192,120,160,180,176C240,192,300,256,360,250.7C420,245,480,171,540,149.3C600,128,660,160,720,197.3C780,235,840,277,900,288C960,299,1020,277,1080,256C1140,235,1200,213,1260,218.7C1320,224,1380,256,1410,272L1440,288L1440,320L1410,320C1380,320,1320,320,1260,320C1200,320,1140,320,1080,320C1020,320,960,320,900,320C840,320,780,320,720,320C660,320,600,320,540,320C480,320,420,320,360,320C300,320,240,320,180,320C120,320,60,320,30,320L0,320Z"></path></svg>